<svg xmlns="http://www.w3.org/2000/svg" width="32" height="32" viewBox="0 0 32 32"><path d="m16,25.907-3.753,-5.265h7.506z" fill="none" stroke="#ffffff" stroke-width="1.283"/><path d="m5.093,15 5.265,-3.753v7.506z" fill="none" stroke="#ffffff" stroke-width="1.283"/><path d="m26.894,15-5.265,-3.753v7.506z" fill="none" stroke="#ffffff" stroke-width="1.283"/><path d="m16,4.106-3.753,5.265h7.506z" fill="none" stroke="#ffffff" stroke-width="1.283"/><path d="m16,5-3,4h6zm-6,7-4,3 4,3zm12,0v6l4,-3zm-9,9 3,4 3,-4z" fill="#ff0000"/><rect x="14" y="9" width="4" height="12" fill="#ffffff"/><rect x="13" y="-22" width="4" height="12" transform="rotate(90)" fill="#ffffff"/><rect x="15" y="9" width="2" height="12" fill="#ff0000"/><rect x="14" y="-22" width="2" height="12" transform="rotate(90)" fill="#ff0000"/></svg>
