<svg xmlns="http://www.w3.org/2000/svg" width="32" height="32" viewBox="0 0 32 32"><g transform="translate(0,-1020.362)"><g transform="translate(-323.798,125.115)"><path d="m340,900.375c-2.901,-.007-5.217,1.725-6.344,3.906-1.047,2.027-.999,4.548 .594,6.375l0,.719c.005,.413 .295,.808 .688,.938l.312,.094-.25,.406c-.023,.03-.043,.061-.062,.094-.076,-.131-.054,-.16-.188,-.312-.234,-.267-.694,-.477-1.219,-.562-.01,-.002-.021,.001-.031,0-.127,-.059-.266,-.091-.406,-.094l0,.062c-.099,.01-.18,-.062-.281,-.031-.066,.025-.129,.056-.188,.094-.055,.026-.107,.058-.156,.094-.011,.01-.021,.021-.031,.031-.071,.055-.251,.135-.281,.156-.629,.446-1.094,.852-1.281,1.594-.094,.371-.006,.906 .312,1.25 .319,.344 .717,.462 1.062,.5-.116,-.013 .196,.052 .562,.188 .366,.136 .845,.327 1.375,.531 .197,.076 .446,.14 .656,.219-.146,.058-.295,.1-.438,.156-.532,.209-1.014,.399-1.406,.531-.392,.132-.743,.188-.688,.188-.278,0-.573,.03-.875,.219-.302,.189-.535,.56-.594,.875-.118,.629 .115,1.011 .312,1.344 .197,.333 .423,.626 .688,.875 .265,.249 .465,.498 1.062,.594 .523,.083 .665,-.066 .875,-.156 .21,-.09 .423,-.214 .656,-.344 .466,-.26 1.028,-.606 1.656,-.969 1.19,-.688 2.618,-1.403 3.906,-1.781 1.28,.38 2.7,1.098 3.875,1.781 .624,.363 1.162,.708 1.625,.969 .231,.13 .447,.254 .656,.344 .209,.09 .353,.239 .875,.156 .596,-.095 .795,-.347 1.062,-.594 .267,-.247 .517,-.544 .719,-.875 .202,-.331 .42,-.679 .312,-1.312-.054,-.317-.29,-.714-.594,-.906-.304,-.192-.597,-.219-.875,-.219 .058,0-.295,-.056-.688,-.188-.392,-.132-.874,-.322-1.406,-.531-.142,-.056-.291,-.099-.438,-.156 .21,-.079 .459,-.143 .656,-.219 .53,-.204 1.009,-.395 1.375,-.531 .366,-.136 .678,-.2 .562,-.188 .345,-.038 .744,-.156 1.062,-.5 .319,-.344 .406,-.879 .312,-1.25-.187,-.742-.652,-1.148-1.281,-1.594-.41,-.291-.909,-.455-1.375,-.406-.466,.049-.855,.276-1.094,.5-.226,.212-.181,.29-.281,.469-.019,-.032-.04,-.064-.062,-.094l-.25,-.406 .312,-.094c.393,-.129 .682,-.524 .688,-.938l0,-.719c1.592,-1.825 1.641,-4.352 .594,-6.375-1.127,-2.178-3.446,-3.899-6.344,-3.906z" fill="#ffffff"/><path d="m340,901.375c-5,-.013-8,5.987-4.75,9l0,1 1.5,.5-.906,1.469 1.781,1 .875,-1.469 .688,0 0,1.5 1.625,0 0,-1.5 .688,0 .875,1.469 1.781,-1-.906,-1.469 1.5,-.5 0,-1c3.25,-3.013 .25,-8.987-4.75,-9zm-2.5,4c.828,0 1.5,.672 1.5,1.5 0,.828-.672,1.5-1.5,1.5-.828,0-1.5,-.672-1.5,-1.5 0,-.828 .672,-1.5 1.5,-1.5zm5,0c.828,0 1.5,.672 1.5,1.5 0,.828-.672,1.5-1.5,1.5-.828,0-1.5,-.672-1.5,-1.5 0,-.828 .672,-1.5 1.5,-1.5zm-9.406,7.562c-.115,.034-.211,.125-.344,.219-1.059,.751-1.213,1.443-.406,1.531 .619,.068 3.42,1.398 5.594,1.906-1.816,.451-4.746,1.906-5.625,1.906-1.26,0 .195,1.818 .75,1.906 .555,.088 3.881,-2.517 6.906,-3.312 .01,.003 .021,-.003 .031,0 3.025,.795 6.32,3.401 6.875,3.312 .555,-.088 2.042,-1.906 .781,-1.906-.876,0-3.813,-1.456-5.625,-1.906 2.174,-.509 4.975,-1.838 5.594,-1.906 .807,-.088 .653,-.78-.406,-1.531-1.059,-.751-1.562,.594-1.562,.594 0,0-3.502,1.795-5.469,2.281-.058,.014-.158,.047-.219,.062-.053,-.013-.137,-.05-.188,-.062-1.966,-.486-5.469,-2.281-5.469,-2.281 0,0-.413,-1.054-1.219,-.812z" fill="#fa1919"/></g></g></svg>
