<svg xmlns="http://www.w3.org/2000/svg" width="32" height="32" viewBox="0 0 32 32"><g transform="translate(7.925,-25.425)"><path d="m-5.114,50.372-.041,.13-1.184,5.337 5.461,-1.219L11.339,42.404 7.096,38.161Zm.897,.517 11.352,-11.069 2.546,2.546-11.069,11.352-3.536,.707z" fill="#000000"/><path d="M-4.218,50.889-4.925,54.425-1.389,53.718 9.218,43.111 6.389,40.282Z" fill="#a7c7e7"/><path d="m1.431,40.981 .648,.648 6.44,6.44 2.744,-2.744-.724,-.724 .8,-.8c1.551,-1.551 1.551,-4.089 0,-5.64-1.551,-1.551-4.089,-1.551-5.64,0L4.899,38.962 4.174,38.238Zm2.591,0 .153,-.153 .724,.724 2.096,-2.096c.856,-.856 2.193,-.856 3.049,0 .856,.856 .856,2.193 0,3.049l-2.096,2.096 .724,.724-.153,.153z" fill="#000000"/><path d="m2.854,40.99 5.657,5.657 1.414,-1.414-.707,-.707 1.414,-1.414c1.175,-1.175 1.175,-3.067 0,-4.243-1.175,-1.175-3.067,-1.175-4.243,0L4.975,40.282 4.268,39.575Z" fill="#a7c7e7"/></g></svg>
