<svg xmlns="http://www.w3.org/2000/svg" width="32" height="32" viewBox="0 0 32 32"><g transform="translate(0,-1020.362)"><path d="m15.5,1028.362c-4.13,0-7.5,3.37-7.5,7.5 0,4.13 3.37,7.5 7.5,7.5 1.29,0 2.516,-.412 3.633,-1.039l4.354,4.354c.771,.771 2.057,.771 2.828,0 .771,-.771 .771,-2.057 0,-2.828l-4.352,-4.354c.626,-1.117 1.037,-2.342 1.037,-3.633 0,-4.13-3.37,-7.5-7.5,-7.5zm0,2c3.049,0 5.5,2.451 5.5,5.5 0,1.166-.371,2.302-1.059,3.244a1,1 0 0 0 .102,1.297h-.002a1,1 0 0 0-1.297,-.1c-.942,.688-2.078,1.058-3.244,1.059-3.049,0-5.5,-2.451-5.5,-5.5 0,-3.049 2.451,-5.5 5.5,-5.5z" fill="#0000ff"/><path d="m15.5,1029.362a6.5,6.5 0 0 0-6.5,6.5 6.5,6.5 0 0 0 6.5,6.5 6.5,6.5 0 0 0 3.834,-1.252l4.859,4.859c.392,.392 1.022,.392 1.414,0 .392,-.392 .392,-1.022 0,-1.414l-4.857,-4.859a6.5,6.5 0 0 0 1.25,-3.834 6.5,6.5 0 0 0-6.5,-6.5z" fill="#00ff00"/><circle cx="15.5" cy="1035.862" r="5.5" fill="#00ff00"/><rect x="12" y="1035.362" width="7" height="1" fill="#0000ff"/></g></svg>
